<svg width="16" height="17" viewBox="0 0 16 17" fill="none" xmlns="http://www.w3.org/2000/svg">
<path d="M9.875 15.2499V11.4999C9.875 11.3341 9.80915 11.1751 9.69194 11.0579C9.57473 10.9407 9.41576 10.8749 9.25 10.8749H6.75C6.58424 10.8749 6.42527 10.9407 6.30806 11.0579C6.19085 11.1751 6.125 11.3341 6.125 11.4999V15.2499C6.125 15.4156 6.05915 15.5746 5.94194 15.6918C5.82473 15.809 5.66576 15.8749 5.5 15.8749H1.75C1.58424 15.8749 1.42527 15.809 1.30806 15.6918C1.19085 15.5746 1.125 15.4156 1.125 15.2499V8.0233C1.1264 7.9368 1.14509 7.85146 1.17998 7.7723C1.21486 7.69314 1.26523 7.62176 1.32812 7.56236L7.57812 1.88267C7.69334 1.77727 7.84384 1.71881 8 1.71881C8.15616 1.71881 8.30666 1.77727 8.42187 1.88267L14.6719 7.56236C14.7348 7.62176 14.7851 7.69314 14.82 7.7723C14.8549 7.85146 14.8736 7.9368 14.875 8.0233V15.2499C14.875 15.4156 14.8092 15.5746 14.6919 15.6918C14.5747 15.809 14.4158 15.8749 14.25 15.8749H10.5C10.3342 15.8749 10.1753 15.809 10.0581 15.6918C9.94085 15.5746 9.875 15.4156 9.875 15.2499Z" stroke="#333333" stroke-width="2" stroke-linecap="round" stroke-linejoin="round"/>
</svg>
