<svg width="20" height="20" viewBox="0 0 20 20" fill="none" xmlns="http://www.w3.org/2000/svg">
<path d="M12.7431 0.694519V6.32733C12.744 6.45843 12.7785 6.5871 12.8434 6.70103L18.6402 16.3625C18.706 16.4727 18.7415 16.5983 18.7432 16.7267C18.7449 16.855 18.7127 16.9815 18.6498 17.0934C18.5869 17.2053 18.4956 17.2987 18.3851 17.364C18.2746 17.4293 18.1488 17.4642 18.0204 17.4654H3.09075C2.9624 17.4642 2.83661 17.4293 2.7261 17.364C2.6156 17.2987 2.52429 17.2053 2.4614 17.0934C2.39852 16.9815 2.36628 16.855 2.36796 16.7267C2.36964 16.5983 2.40517 16.4727 2.47096 16.3625L8.26783 6.70103C8.3327 6.5871 8.36722 6.45843 8.36809 6.32733V0.694519" stroke="#333333" stroke-width="2" stroke-linecap="round" stroke-linejoin="round"/>
<path d="M14.2014 0.694519H6.90975" stroke="#333333" stroke-width="2" stroke-linecap="round" stroke-linejoin="round"/>
<path d="M16.5165 12.8167C15.441 12.0238 13.5907 11.5771 10.5555 13.0902C7.30164 14.7217 5.4058 14.0745 4.36674 13.1904" stroke="#333333" stroke-width="2" stroke-linecap="round" stroke-linejoin="round"/>
</svg>
