<svg width="20" height="20" viewBox="0 0 20 20" fill="none" xmlns="http://www.w3.org/2000/svg">
<path d="M3.54684 13.8282C2.61628 12.2582 2.29079 10.4025 2.63146 8.60955C2.97213 6.81658 3.95553 5.2096 5.39706 4.09032C6.83859 2.97103 8.6391 2.4164 10.4606 2.53055C12.2821 2.6447 13.9992 3.41978 15.2897 4.71029C16.5802 6.00079 17.3553 7.71797 17.4695 9.53945C17.5836 11.3609 17.029 13.1614 15.9097 14.603C14.7904 16.0445 13.1834 17.0279 11.3905 17.3686C9.5975 17.7092 7.74183 17.3837 6.17184 16.4532V16.4532L3.57809 17.1876C3.47182 17.2186 3.35915 17.2206 3.25189 17.1931C3.14462 17.1657 3.04671 17.1099 2.96842 17.0316C2.89013 16.9533 2.83434 16.8554 2.8069 16.7481C2.77946 16.6409 2.78139 16.5282 2.81247 16.4219L3.54684 13.8282Z" stroke="#333333" stroke-width="2" stroke-linecap="round" stroke-linejoin="round"/>
<path d="M10 10.9375C10.5178 10.9375 10.9375 10.5178 10.9375 10C10.9375 9.48223 10.5178 9.0625 10 9.0625C9.48223 9.0625 9.0625 9.48223 9.0625 10C9.0625 10.5178 9.48223 10.9375 10 10.9375Z" fill="#333333"/>
<path d="M6.25 10.9375C6.76777 10.9375 7.1875 10.5178 7.1875 10C7.1875 9.48223 6.76777 9.0625 6.25 9.0625C5.73223 9.0625 5.3125 9.48223 5.3125 10C5.3125 10.5178 5.73223 10.9375 6.25 10.9375Z" fill="#333333"/>
<path d="M13.75 10.9375C14.2678 10.9375 14.6875 10.5178 14.6875 10C14.6875 9.48223 14.2678 9.0625 13.75 9.0625C13.2322 9.0625 12.8125 9.48223 12.8125 10C12.8125 10.5178 13.2322 10.9375 13.75 10.9375Z" fill="#333333"/>
</svg>
