<svg width="18" height="19" viewBox="0 0 18 19" fill="none" xmlns="http://www.w3.org/2000/svg">
<path d="M11.25 3.44885H14.0625C14.2117 3.44885 14.3548 3.50812 14.4602 3.61361C14.5657 3.71909 14.625 3.86217 14.625 4.01135V15.8239C14.625 15.973 14.5657 16.1161 14.4602 16.2216C14.3548 16.3271 14.2117 16.3864 14.0625 16.3864H3.9375C3.78832 16.3864 3.64524 16.3271 3.53975 16.2216C3.43426 16.1161 3.375 15.973 3.375 15.8239V4.01135C3.375 3.86217 3.43426 3.71909 3.53975 3.61361C3.64524 3.50812 3.78832 3.44885 3.9375 3.44885H6.75" fill="#828282"/>
<path d="M11.25 3.44885H14.0625C14.2117 3.44885 14.3548 3.50812 14.4602 3.61361C14.5657 3.71909 14.625 3.86217 14.625 4.01135V15.8239C14.625 15.973 14.5657 16.1161 14.4602 16.2216C14.3548 16.3271 14.2117 16.3864 14.0625 16.3864H3.9375C3.78832 16.3864 3.64524 16.3271 3.53975 16.2216C3.43426 16.1161 3.375 15.973 3.375 15.8239V4.01135C3.375 3.86217 3.43426 3.71909 3.53975 3.61361C3.64524 3.50812 3.78832 3.44885 3.9375 3.44885H6.75" stroke="#828282" stroke-linecap="round" stroke-linejoin="round"/>
<path d="M6.75 11.3239H11.25" stroke="white" stroke-linecap="round" stroke-linejoin="round"/>
<path d="M6.75 9.07385H11.25" stroke="white" stroke-linecap="round" stroke-linejoin="round"/>
<path d="M6.1875 4.69885V4.13635C6.1875 3.39043 6.48382 2.67506 7.01126 2.14761C7.53871 1.62017 8.25408 1.32385 9 1.32385C9.74592 1.32385 10.4613 1.62017 10.9887 2.14761C11.5162 2.67506 11.8125 3.39043 11.8125 4.13635V4.69885H6.1875Z" stroke="#828282" stroke-linecap="round" stroke-linejoin="round"/>
</svg>
