<svg width="26" height="26" viewBox="0 0 26 26" fill="none" xmlns="http://www.w3.org/2000/svg">
<path d="M9.75 16.25H4.0625C3.84701 16.25 3.64035 16.1644 3.48798 16.012C3.3356 15.8597 3.25 15.653 3.25 15.4375V10.5625C3.25 10.347 3.3356 10.1403 3.48798 9.98798C3.64035 9.8356 3.84701 9.75 4.0625 9.75H9.75V4.0625C9.75 3.84701 9.8356 3.64035 9.98798 3.48798C10.1403 3.3356 10.347 3.25 10.5625 3.25H15.4375C15.653 3.25 15.8597 3.3356 16.012 3.48798C16.1644 3.64035 16.25 3.84701 16.25 4.0625V9.75H21.9375C22.153 9.75 22.3597 9.8356 22.512 9.98798C22.6644 10.1403 22.75 10.347 22.75 10.5625V15.4375C22.75 15.653 22.6644 15.8597 22.512 16.012C22.3597 16.1644 22.153 16.25 21.9375 16.25H16.25V21.9375C16.25 22.153 16.1644 22.3597 16.012 22.512C15.8597 22.6644 15.653 22.75 15.4375 22.75H10.5625C10.347 22.75 10.1403 22.6644 9.98798 22.512C9.8356 22.3597 9.75 22.153 9.75 21.9375V16.25Z" stroke="white" stroke-width="2" stroke-linecap="round" stroke-linejoin="round"/>
</svg>
