<svg width="26" height="26" viewBox="0 0 26 26" fill="none" xmlns="http://www.w3.org/2000/svg">
<path d="M1.625 21.9375H24.375" stroke="white" stroke-width="2" stroke-linecap="round" stroke-linejoin="round"/>
<path d="M14.625 21.9375V4.0625C14.625 3.84701 14.5394 3.64035 14.387 3.48798C14.2347 3.3356 14.028 3.25 13.8125 3.25H4.0625C3.84701 3.25 3.64035 3.3356 3.48798 3.48798C3.3356 3.64035 3.25 3.84701 3.25 4.0625V21.9375" stroke="white" stroke-width="2" stroke-linecap="round" stroke-linejoin="round"/>
<path d="M22.75 21.9375V10.5625C22.75 10.347 22.6644 10.1403 22.512 9.98798C22.3597 9.8356 22.153 9.75 21.9375 9.75H14.625" stroke="white" stroke-width="2" stroke-linecap="round" stroke-linejoin="round"/>
<path d="M6.5 7.3125H9.75" stroke="white" stroke-width="2" stroke-linecap="round" stroke-linejoin="round"/>
<path d="M8.125 13.8125H11.375" stroke="white" stroke-width="2" stroke-linecap="round" stroke-linejoin="round"/>
<path d="M6.5 17.875H9.75" stroke="white" stroke-width="2" stroke-linecap="round" stroke-linejoin="round"/>
<path d="M17.875 17.875H19.5" stroke="white" stroke-width="2" stroke-linecap="round" stroke-linejoin="round"/>
<path d="M17.875 13.8125H19.5" stroke="white" stroke-width="2" stroke-linecap="round" stroke-linejoin="round"/>
</svg>
