<svg width="26" height="27" viewBox="0 0 26 27" fill="none" xmlns="http://www.w3.org/2000/svg">
<path d="M16.566 1.90289V9.22555C16.5671 9.39597 16.612 9.56325 16.6963 9.71136L24.2322 22.2713C24.3178 22.4145 24.3639 22.5779 24.3661 22.7447C24.3683 22.9116 24.3264 23.076 24.2447 23.2215C24.1629 23.367 24.0442 23.4883 23.9005 23.5732C23.7569 23.6581 23.5934 23.7035 23.4265 23.705H4.01791C3.85105 23.7035 3.68753 23.6581 3.54387 23.5732C3.40022 23.4883 3.28151 23.367 3.19976 23.2215C3.11801 23.076 3.07611 22.9116 3.07829 22.7447C3.08047 22.5779 3.12666 22.4145 3.21218 22.2713L10.7481 9.71136C10.8324 9.56325 10.8773 9.39597 10.8785 9.22555V1.90289" stroke="white" stroke-width="2" stroke-linecap="round" stroke-linejoin="round"/>
<path d="M18.4618 1.90289H8.98263" stroke="white" stroke-width="2" stroke-linecap="round" stroke-linejoin="round"/>
<path d="M21.4714 17.6618C20.0733 16.6309 17.6679 16.0503 13.7222 18.0172C9.49214 20.1382 7.02756 19.2969 5.67678 18.1476" stroke="white" stroke-width="2" stroke-linecap="round" stroke-linejoin="round"/>
</svg>
