<svg width="4" height="15" viewBox="0 0 4 15" fill="none" xmlns="http://www.w3.org/2000/svg">
<path d="M3.5 1.69191C3.5 2.55057 2.828 3.24746 2 3.24746C1.172 3.24746 0.5 2.55057 0.5 1.69191C0.5 0.833241 1.172 0.136353 2 0.136353C2.828 0.136353 3.5 0.833241 3.5 1.69191Z" fill="#828282"/>
<path d="M2 5.5808C1.172 5.5808 0.5 6.27769 0.5 7.13635C0.5 7.99502 1.172 8.69191 2 8.69191C2.828 8.69191 3.5 7.99502 3.5 7.13635C3.5 6.27769 2.828 5.5808 2 5.5808Z" fill="#828282"/>
<path d="M2 11.0252C1.172 11.0252 0.5 11.7221 0.5 12.5808C0.5 13.4395 1.172 14.1364 2 14.1364C2.828 14.1364 3.5 13.4395 3.5 12.5808C3.5 11.7221 2.828 11.0252 2 11.0252Z" fill="#828282"/>
</svg>
