<svg width="22" height="23" viewBox="0 0 22 23" fill="none" xmlns="http://www.w3.org/2000/svg">
<path d="M3.90155 15.711C2.87794 13.984 2.51989 11.9428 2.89463 9.97051C3.26936 7.99824 4.35111 6.23057 5.93679 4.99935C7.52247 3.76813 9.50303 3.15804 11.5067 3.2836C13.5103 3.40917 15.3992 4.26176 16.8187 5.68132C18.2383 7.10087 19.0909 8.98977 19.2165 10.9934C19.342 12.997 18.7319 14.9776 17.5007 16.5633C16.2695 18.1489 14.5018 19.2307 12.5295 19.6054C10.5573 19.9802 8.51604 19.6221 6.78905 18.5985V18.5985L3.93593 19.4063C3.81903 19.4405 3.69509 19.4426 3.5771 19.4124C3.45911 19.3823 3.35141 19.3209 3.26529 19.2348C3.17917 19.1486 3.1178 19.0409 3.08762 18.923C3.05744 18.805 3.05955 18.681 3.09374 18.5641L3.90155 15.711Z" stroke="#828282" stroke-width="2" stroke-linecap="round" stroke-linejoin="round"/>
<path d="M11 12.5312C11.5695 12.5312 12.0312 12.0695 12.0312 11.5C12.0312 10.9305 11.5695 10.4688 11 10.4688C10.4305 10.4688 9.96875 10.9305 9.96875 11.5C9.96875 12.0695 10.4305 12.5312 11 12.5312Z" fill="#828282"/>
<path d="M6.875 12.5312C7.44454 12.5312 7.90625 12.0695 7.90625 11.5C7.90625 10.9305 7.44454 10.4688 6.875 10.4688C6.30546 10.4688 5.84375 10.9305 5.84375 11.5C5.84375 12.0695 6.30546 12.5312 6.875 12.5312Z" fill="#828282"/>
<path d="M15.125 12.5312C15.6945 12.5312 16.1562 12.0695 16.1562 11.5C16.1562 10.9305 15.6945 10.4688 15.125 10.4688C14.5555 10.4688 14.0938 10.9305 14.0938 11.5C14.0938 12.0695 14.5555 12.5312 15.125 12.5312Z" fill="#828282"/>
</svg>
