<svg width="23" height="25" viewBox="0 0 23 25" fill="none" xmlns="http://www.w3.org/2000/svg">
<g clip-path="url(#clip0_2926_2397)">
<path d="M8.625 21.5H14.375" stroke="#828282" stroke-width="2" stroke-linecap="round" stroke-linejoin="round"/>
<path d="M5.04922 10.25C5.04802 9.36086 5.21542 8.48025 5.54177 7.6589C5.86811 6.83755 6.34697 6.09169 6.95074 5.46428C7.55452 4.83687 8.27128 4.3403 9.05976 4.00318C9.84824 3.66606 10.6928 3.49505 11.5449 3.5C15.1027 3.52813 17.9508 6.6125 17.9508 10.3344V11C17.9508 14.3563 18.6246 16.3063 19.2176 17.375C19.2806 17.4888 19.3138 17.6179 19.3139 17.7493C19.314 17.8808 19.281 18.0099 19.2182 18.1239C19.1554 18.2378 19.0651 18.3325 18.9561 18.3985C18.8472 18.4645 18.7236 18.4995 18.5977 18.5H4.40235C4.27639 18.4995 4.15277 18.4645 4.04386 18.3985C3.93495 18.3325 3.84457 18.2378 3.78179 18.1239C3.719 18.0099 3.68602 17.8808 3.68613 17.7493C3.68624 17.6179 3.71945 17.4888 3.78242 17.375C4.37539 16.3063 5.04922 14.3563 5.04922 11V10.25Z" stroke="#828282" stroke-width="2" stroke-linecap="round" stroke-linejoin="round"/>
</g>
<defs>
<clipPath id="clip0_2926_2397">
<rect width="23" height="24" fill="white" transform="translate(0 0.5)"/>
</clipPath>
</defs>
</svg>
