<svg width="14" height="15" viewBox="0 0 14 15" fill="none" xmlns="http://www.w3.org/2000/svg">
<path d="M6.85132 6.35165V8.49269" stroke="#FFBA52" stroke-width="2" stroke-linecap="round" stroke-linejoin="round"/>
<path d="M6.11268 2.92587L1.4024 11.0618C1.32736 11.1918 1.28779 11.3392 1.28766 11.4893C1.28753 11.6393 1.32683 11.7868 1.40164 11.9169C1.47645 12.047 1.58414 12.1552 1.71391 12.2306C1.84368 12.3059 1.99098 12.3459 2.14106 12.3464H11.5616C11.7117 12.3459 11.859 12.3059 11.9888 12.2306C12.1185 12.1552 12.2262 12.047 12.301 11.9169C12.3758 11.7868 12.4152 11.6393 12.415 11.4893C12.4149 11.3392 12.3753 11.1918 12.3003 11.0618L7.59 2.92587C7.51552 2.79573 7.40798 2.68758 7.27827 2.61236C7.14856 2.53714 7.00128 2.49753 6.85134 2.49753C6.7014 2.49753 6.55412 2.53714 6.4244 2.61236C6.29469 2.68758 6.18716 2.79573 6.11268 2.92587V2.92587Z" stroke="#FFBA52" stroke-width="2" stroke-linecap="round" stroke-linejoin="round"/>
<path d="M6.85136 11.0621C7.2061 11.0621 7.49367 10.7746 7.49367 10.4198C7.49367 10.0651 7.2061 9.77753 6.85136 9.77753C6.49662 9.77753 6.20905 10.0651 6.20905 10.4198C6.20905 10.7746 6.49662 11.0621 6.85136 11.0621Z" fill="#FFBA52"/>
</svg>
