<svg width="14" height="15" viewBox="0 0 14 15" fill="none" xmlns="http://www.w3.org/2000/svg">
<path d="M6.85132 6.35162V8.49266" stroke="#FFBA52" stroke-width="2" stroke-linecap="round" stroke-linejoin="round"/>
<path d="M6.11265 2.92587L1.40237 11.0618C1.32733 11.1918 1.28776 11.3392 1.28763 11.4893C1.2875 11.6393 1.3268 11.7868 1.40161 11.9169C1.47642 12.047 1.58411 12.1552 1.71388 12.2306C1.84365 12.3059 1.99095 12.3459 2.14103 12.3464H11.5616C11.7117 12.3459 11.859 12.3059 11.9887 12.2306C12.1185 12.1552 12.2262 12.047 12.301 11.9169C12.3758 11.7868 12.4151 11.6393 12.415 11.4893C12.4149 11.3392 12.3753 11.1918 12.3002 11.0618L7.58997 2.92587C7.51549 2.79573 7.40795 2.68758 7.27824 2.61236C7.14853 2.53714 7.00125 2.49753 6.85131 2.49753C6.70137 2.49753 6.55408 2.53714 6.42437 2.61236C6.29466 2.68758 6.18713 2.79573 6.11265 2.92587V2.92587Z" stroke="#FFBA52" stroke-width="2" stroke-linecap="round" stroke-linejoin="round"/>
<path d="M6.85133 11.0621C7.20606 11.0621 7.49364 10.7746 7.49364 10.4198C7.49364 10.0651 7.20606 9.77753 6.85133 9.77753C6.49659 9.77753 6.20901 10.0651 6.20901 10.4198C6.20901 10.7746 6.49659 11.0621 6.85133 11.0621Z" fill="#FFBA52"/>
</svg>
