<svg width="14" height="15" viewBox="0 0 14 15" fill="none" xmlns="http://www.w3.org/2000/svg">
<path d="M12.25 1.375H10.0625V2.25H12.25V12.75H10.0625V13.625H12.25C12.4819 13.6243 12.704 13.5319 12.868 13.368C13.0319 13.204 13.1243 12.9819 13.125 12.75V2.25C13.1243 2.01815 13.0319 1.79599 12.868 1.63205C12.704 1.4681 12.4819 1.37569 12.25 1.375ZM6.12501 7.9375H3.50001C3.44164 7.93399 3.3832 7.9429 3.32853 7.96365C3.27386 7.9844 3.22421 8.0165 3.18286 8.05785C3.14151 8.0992 3.10941 8.14884 3.08866 8.20351C3.06792 8.25818 3.059 8.31663 3.06251 8.375V11C3.059 11.0584 3.06792 11.1168 3.08866 11.1715C3.10941 11.2262 3.14151 11.2758 3.18286 11.3172C3.22421 11.3585 3.27386 11.3906 3.32853 11.4114C3.3832 11.4321 3.44164 11.441 3.50001 11.4375H6.12501C6.18338 11.441 6.24183 11.4321 6.2965 11.4114C6.35117 11.3906 6.40082 11.3585 6.44216 11.3172C6.48351 11.2758 6.51562 11.2262 6.53636 11.1715C6.55711 11.1168 6.56602 11.0584 6.56251 11V8.375C6.56602 8.31663 6.55711 8.25818 6.53636 8.20351C6.51562 8.14884 6.48351 8.0992 6.44216 8.05785C6.40082 8.0165 6.35117 7.9844 6.2965 7.96365C6.24183 7.9429 6.18338 7.93399 6.12501 7.9375ZM5.68751 10.5625H3.93751V8.8125H5.68751V10.5625Z" fill="#B9B9B9"/>
<path d="M10.9375 11V8.37501C10.941 8.31664 10.9321 8.25819 10.9114 8.20353C10.8906 8.14886 10.8585 8.09921 10.8172 8.05786C10.7758 8.01651 10.7262 7.98441 10.6715 7.96366C10.6168 7.94292 10.5584 7.934 10.5 7.93751H7.87501C7.81664 7.934 7.75819 7.94292 7.70353 7.96366C7.64886 7.98441 7.59921 8.01651 7.55786 8.05786C7.51651 8.09921 7.48441 8.14886 7.46366 8.20353C7.44292 8.25819 7.434 8.31664 7.43751 8.37501V11C7.434 11.0584 7.44292 11.1168 7.46366 11.1715C7.48441 11.2262 7.51651 11.2758 7.55786 11.3172C7.59921 11.3585 7.64886 11.3906 7.70353 11.4114C7.75819 11.4321 7.81664 11.441 7.87501 11.4375H10.5C10.616 11.4373 10.7271 11.3911 10.8091 11.3091C10.8911 11.2271 10.9373 11.116 10.9375 11ZM10.0625 10.5625H8.31251V8.81251H10.0625V10.5625ZM6.12501 3.56251H3.50001C3.44164 3.559 3.3832 3.56792 3.32853 3.58866C3.27386 3.60941 3.22421 3.64151 3.18286 3.68286C3.14151 3.72421 3.10941 3.77386 3.08866 3.82853C3.06792 3.8832 3.059 3.94164 3.06251 4.00001V6.62501C3.059 6.68338 3.06792 6.74183 3.08866 6.7965C3.10941 6.85117 3.14151 6.90082 3.18286 6.94216C3.22421 6.98351 3.27386 7.01562 3.32853 7.03636C3.3832 7.05711 3.44164 7.06602 3.50001 7.06251H6.12501C6.18338 7.06602 6.24183 7.05711 6.2965 7.03636C6.35117 7.01562 6.40082 6.98351 6.44216 6.94216C6.48351 6.90082 6.51562 6.85117 6.53636 6.7965C6.55711 6.74183 6.56602 6.68338 6.56251 6.62501V4.00001C6.56602 3.94164 6.55711 3.8832 6.53636 3.82853C6.51562 3.77386 6.48351 3.72421 6.44216 3.68286C6.40082 3.64151 6.35117 3.60941 6.2965 3.58866C6.24183 3.56792 6.18338 3.559 6.12501 3.56251ZM5.68751 6.18751H3.93751V4.43751H5.68751V6.18751ZM7.87501 7.06251H10.5C10.5584 7.06602 10.6168 7.05711 10.6715 7.03636C10.7262 7.01562 10.7758 6.98351 10.8172 6.94216C10.8585 6.90082 10.8906 6.85117 10.9114 6.7965C10.9321 6.74183 10.941 6.68338 10.9375 6.62501V4.00001C10.941 3.94164 10.9321 3.8832 10.9114 3.82853C10.8906 3.77386 10.8585 3.72421 10.8172 3.68286C10.7758 3.64151 10.7262 3.60941 10.6715 3.58866C10.6168 3.56792 10.5584 3.559 10.5 3.56251H7.87501C7.81664 3.559 7.75819 3.56792 7.70353 3.58866C7.64886 3.60941 7.59921 3.64151 7.55786 3.68286C7.51651 3.72421 7.48441 3.77386 7.46366 3.82853C7.44292 3.8832 7.434 3.94164 7.43751 4.00001V6.62501C7.43774 6.74097 7.48391 6.85212 7.56591 6.93412C7.6479 7.01611 7.75905 7.06228 7.87501 7.06251ZM8.31251 4.43751H10.0625V6.18751H8.31251V4.43751Z" fill="#B9B9B9"/>
<path d="M1.75 2.25H3.9375V1.375H1.75C1.51815 1.37569 1.29599 1.4681 1.13205 1.63205C0.968102 1.79599 0.875692 2.01815 0.875 2.25V12.75C0.875692 12.9819 0.968102 13.204 1.13205 13.368C1.29599 13.5319 1.51815 13.6243 1.75 13.625H3.9375V12.75H1.75V2.25Z" fill="#B9B9B9"/>
</svg>
