<svg width="14" height="13" viewBox="0 0 14 13" fill="none" xmlns="http://www.w3.org/2000/svg">
<path d="M9.625 10H4.375C4.14301 9.99977 3.92058 9.90751 3.75654 9.74346C3.59249 9.57942 3.50023 9.35699 3.5 9.125V3.875C3.50023 3.64301 3.59249 3.42058 3.75654 3.25654C3.92058 3.09249 4.14301 3.00023 4.375 3H9.625C9.85699 3.00023 10.0794 3.09249 10.2435 3.25654C10.4075 3.42058 10.4998 3.64301 10.5 3.875V9.125C10.4998 9.35699 10.4075 9.57942 10.2435 9.74346C10.0794 9.90751 9.85699 9.99977 9.625 10ZM4.375 3.875V9.125H9.625V3.875H4.375ZM3.5 12.625H1.75C1.51801 12.6248 1.29558 12.5325 1.13154 12.3685C0.967493 12.2044 0.875232 11.982 0.875 11.75V1.25C0.875232 1.01801 0.967493 0.795582 1.13154 0.631537C1.29558 0.467493 1.51801 0.375232 1.75 0.375H3.5V1.25H1.75V11.75H3.5V12.625ZM12.25 12.625H10.5V11.75H12.25V1.25H10.5V0.375H12.25C12.482 0.375232 12.7044 0.467493 12.8685 0.631537C13.0325 0.795582 13.1248 1.01801 13.125 1.25V11.75C13.1248 11.982 13.0325 12.2044 12.8685 12.3685C12.7044 12.5325 12.482 12.6248 12.25 12.625Z" fill="#B9B9B9"/>
</svg>
