<svg width="13" height="13" viewBox="0 0 13 13" fill="none" xmlns="http://www.w3.org/2000/svg">
<path d="M5.99998 6.49999C7.61081 6.49999 8.91665 5.19415 8.91665 3.58332C8.91665 1.97249 7.61081 0.666656 5.99998 0.666656C4.38915 0.666656 3.08331 1.97249 3.08331 3.58332C3.08331 5.19415 4.38915 6.49999 5.99998 6.49999Z" stroke="#B9B9B9"/>
<path d="M8.33333 8.83332L9.64583 9.99999L11.8333 7.66666M8.91666 12.3333H2.07183C1.90638 12.3334 1.74282 12.2982 1.592 12.2302C1.44118 12.1622 1.30655 12.0629 1.19705 11.9389C1.08754 11.8149 1.00566 11.669 0.956847 11.5109C0.908032 11.3528 0.893396 11.1862 0.913911 11.022L1.14141 9.19966C1.19432 8.77629 1.40007 8.38683 1.71998 8.10452C2.03989 7.82221 2.45191 7.66649 2.87858 7.66666H3.08333L8.91666 12.3333Z" stroke="#B9B9B9" stroke-linecap="round" stroke-linejoin="round"/>
</svg>
